<svg id="Layer_1" data-name="Layer 1" xmlns="http://www.w3.org/2000/svg" viewBox="0 0 30.22 36.9"><defs><style>.cls-1,.cls-3{fill:#1c466d;}.cls-2{fill:#ca2b2d;}.cls-3{font-size:4.55px;font-family:Futura;}</style></defs><title>HVAC - Vector [Converted]</title><path class="cls-1" d="M14,12.9a2.48,2.48,0,0,0-.61.46l1.75,1.75Zm0,0a2.48,2.48,0,0,0-.61.46l1.75,1.75Zm0,0a2.49,2.49,0,0,0-1.31,2.2h0a2.51,2.51,0,0,0,.72,1.74l1.74-1.74Zm3.4,1h0a2.49,2.49,0,0,0-2.21-1.34h0a2.5,2.5,0,0,0-2.46,2.5h0a2.5,2.5,0,0,0,2.46,2.48h0a2.5,2.5,0,0,0,2.37-1.72,2.45,2.45,0,0,0,.13-0.77h0A2.47,2.47,0,0,0,17.36,13.94Zm0,0h0a2.49,2.49,0,0,0-2.21-1.34h0a2.5,2.5,0,0,0-2.46,2.5h0a2.5,2.5,0,0,0,2.46,2.48h0a2.5,2.5,0,0,0,2.37-1.72,2.45,2.45,0,0,0,.13-0.77h0A2.47,2.47,0,0,0,17.36,13.94Zm0,0h0a2.49,2.49,0,0,0-2.21-1.34h0a2.5,2.5,0,0,0-2.46,2.5h0a2.5,2.5,0,0,0,2.46,2.48h0a2.5,2.5,0,0,0,2.37-1.72,2.45,2.45,0,0,0,.13-0.77h0A2.47,2.47,0,0,0,17.36,13.94Zm0,0h0a2.49,2.49,0,0,0-2.21-1.34h0a2.5,2.5,0,0,0-2.46,2.5h0a2.5,2.5,0,0,0,2.46,2.48h0a2.5,2.5,0,0,0,2.37-1.72,2.45,2.45,0,0,0,.13-0.77h0A2.47,2.47,0,0,0,17.36,13.94ZM15.15,3.05a12,12,0,1,0,12,12A12,12,0,0,0,15.15,3.05Zm4.4,13.47a6.84,6.84,0,0,1,2.76,1.68,2.89,2.89,0,0,1,0,4.07l0,0L18,18a4,4,0,0,1-1,.73l0.28,0.54A6.84,6.84,0,0,1,18,22.39a2.89,2.89,0,0,1-2.86,2.9h0V19.14a4,4,0,0,1-1.22-.2l-0.2.61A6.84,6.84,0,0,1,12,22.31a2.89,2.89,0,0,1-4.07,0l0,0,4.36-4.36a4.05,4.05,0,0,1-.72-1l-0.59.3A6.84,6.84,0,0,1,7.83,18a2.89,2.89,0,0,1-2.9-2.86v0h6.18a4,4,0,0,1,.18-1.21l-0.62-.2A6.82,6.82,0,0,1,7.91,12a2.89,2.89,0,0,1,0-4.07l0,0,4.35,4.35a4.07,4.07,0,0,1,1-.74L13,11a6.83,6.83,0,0,1-.76-3.14,2.89,2.89,0,0,1,2.86-2.9h0v6.12h0a4,4,0,0,1,1.19.18l0.18-.57A6.82,6.82,0,0,1,18.2,7.91a2.89,2.89,0,0,1,4.07,0l0,0L18,12.22a4.05,4.05,0,0,1,.74,1L19.25,13a6.83,6.83,0,0,1,3.14-.76,2.89,2.89,0,0,1,2.9,2.86v0H19.19a4,4,0,0,1-.2,1.24Zm-2.19-2.58a2.49,2.49,0,0,0-2.21-1.34h0a2.5,2.5,0,0,0-2.46,2.5h0a2.5,2.5,0,0,0,2.46,2.48h0a2.5,2.5,0,0,0,2.37-1.72,2.45,2.45,0,0,0,.13-0.77h0a2.47,2.47,0,0,0-.28-1.15h0Zm0,0h0a2.49,2.49,0,0,0-2.21-1.34h0a2.5,2.5,0,0,0-2.46,2.5h0a2.5,2.5,0,0,0,2.46,2.48h0a2.5,2.5,0,0,0,2.37-1.72,2.45,2.45,0,0,0,.13-0.77h0A2.47,2.47,0,0,0,17.36,13.94Zm0,0h0a2.49,2.49,0,0,0-2.21-1.34h0a2.5,2.5,0,0,0-2.46,2.5h0a2.5,2.5,0,0,0,2.46,2.48h0a2.5,2.5,0,0,0,2.37-1.72,2.45,2.45,0,0,0,.13-0.77h0A2.47,2.47,0,0,0,17.36,13.94Zm-2.26,1.17L14,12.9a2.49,2.49,0,0,0-1.31,2.2h0a2.5,2.5,0,0,0,2.46,2.48h0a2.49,2.49,0,0,0,1.74-.71ZM14,12.9a2.49,2.49,0,0,0-1.31,2.2h0a2.51,2.51,0,0,0,.72,1.74l1.74-1.74Zm0,0a2.48,2.48,0,0,0-.61.46l1.75,1.75Z"/><path class="cls-1" d="M15.15,2.54A12.56,12.56,0,1,0,27.71,15.1,12.57,12.57,0,0,0,15.15,2.54Zm0,24.09A11.54,11.54,0,1,1,26.69,15.1,11.55,11.55,0,0,1,15.15,26.63Z"/><path class="cls-2" d="M17.65,15.1h0a2.45,2.45,0,0,1-.13.77,2.5,2.5,0,0,1-2.37,1.72h0a2.45,2.45,0,0,1-.75-0.13,2.5,2.5,0,0,1-1.71-2.36h0a2.5,2.5,0,0,1,2.46-2.5h0a2.5,2.5,0,0,1,2.21,1.34h0A2.47,2.47,0,0,1,17.65,15.1Z"/><path class="cls-2" d="M15.11,0A15.11,15.11,0,1,0,30.22,15.11,15.11,15.11,0,0,0,15.11,0Zm9.76,24.87A13.81,13.81,0,1,1,5.34,5.34,13.81,13.81,0,1,1,24.87,24.87Z"/><text class="cls-3" transform="translate(0.52 35.58)">Hydrotechnics</text></svg>